<svg xmlns="http://www.w3.org/2000/svg" xmlns:xlink="http://www.w3.org/1999/xlink" width="1366" zoomAndPan="magnify" viewBox="0 0 1024.5 576" height="768" preserveAspectRatio="xMidYMid meet" version="1.0"><defs><filter x="0%" y="0%" width="100%" height="100%" id="4fe77723e2"><feColorMatrix values="0 0 0 0 1 0 0 0 0 1 0 0 0 0 1 0 0 0 1 0" color-interpolation-filters="sRGB"/></filter><g/><clipPath id="c3043f91f0"><path d="M 0 0.140625 L 1024 0.140625 L 1024 575.859375 L 0 575.859375 Z M 0 0.140625 " clip-rule="nonzero"/></clipPath><clipPath id="5e846ab034"><path d="M 67 0.140625 L 284 0.140625 L 284 376 L 67 376 Z M 67 0.140625 " clip-rule="nonzero"/></clipPath><mask id="a987526ee1"><g filter="url(#4fe77723e2)"><rect x="-102.45" width="1229.4" fill="#000000" y="-57.6" height="691.2" fill-opacity="0.25"/></g></mask><clipPath id="14dd0237d5"><rect x="0" width="217" y="0" height="376"/></clipPath><mask id="3579e7668e"><g filter="url(#4fe77723e2)"><rect x="-102.45" width="1229.4" fill="#000000" y="-57.6" height="691.2" fill-opacity="0.5"/></g></mask><clipPath id="de5a744002"><rect x="0" width="217" y="0" height="377"/></clipPath></defs><g clip-path="url(#c3043f91f0)"><path fill="#ffffff" d="M 0 0.140625 L 1024 0.140625 L 1024 575.859375 L 0 575.859375 Z M 0 0.140625 " fill-opacity="1" fill-rule="nonzero"/><path fill="#f6f8ef" d="M 0 0.140625 L 1024 0.140625 L 1024 575.859375 L 0 575.859375 Z M 0 0.140625 " fill-opacity="1" fill-rule="nonzero"/></g><g fill="#000000" fill-opacity="1"><g transform="translate(78.757505, 494.408223)"><g><path d="M 26.171875 -28.34375 L 26.171875 0 L 21 0 L 8.65625 -17.84375 L 8.453125 -17.84375 L 8.453125 0 L 2.46875 0 L 2.46875 -28.34375 L 7.71875 -28.34375 L 19.953125 -10.515625 L 20.203125 -10.515625 L 20.203125 -28.34375 Z M 26.171875 -28.34375 "/></g></g></g><g fill="#000000" fill-opacity="1"><g transform="translate(118.200664, 494.408223)"><g><path d="M 28.5 -14.171875 C 28.5 -11.078125 27.914062 -8.445312 26.75 -6.28125 C 25.582031 -4.113281 24 -2.457031 22 -1.3125 C 20 -0.175781 17.742188 0.390625 15.234375 0.390625 C 12.710938 0.390625 10.453125 -0.179688 8.453125 -1.328125 C 6.453125 -2.472656 4.867188 -4.128906 3.703125 -6.296875 C 2.546875 -8.472656 1.96875 -11.097656 1.96875 -14.171875 C 1.96875 -17.265625 2.546875 -19.894531 3.703125 -22.0625 C 4.867188 -24.226562 6.453125 -25.878906 8.453125 -27.015625 C 10.453125 -28.160156 12.710938 -28.734375 15.234375 -28.734375 C 17.742188 -28.734375 20 -28.160156 22 -27.015625 C 24 -25.878906 25.582031 -24.226562 26.75 -22.0625 C 27.914062 -19.894531 28.5 -17.265625 28.5 -14.171875 Z M 22.4375 -14.171875 C 22.4375 -17.179688 21.78125 -19.472656 20.46875 -21.046875 C 19.15625 -22.628906 17.410156 -23.421875 15.234375 -23.421875 C 13.054688 -23.421875 11.3125 -22.628906 10 -21.046875 C 8.695312 -19.472656 8.046875 -17.179688 8.046875 -14.171875 C 8.046875 -11.171875 8.695312 -8.875 10 -7.28125 C 11.3125 -5.695312 13.054688 -4.90625 15.234375 -4.90625 C 17.410156 -4.90625 19.15625 -5.695312 20.46875 -7.28125 C 21.78125 -8.875 22.4375 -11.171875 22.4375 -14.171875 Z M 22.4375 -14.171875 "/></g></g></g><g fill="#000000" fill-opacity="1"><g transform="translate(159.470495, 494.408223)"><g/></g></g><g fill="#000000" fill-opacity="1"><g transform="translate(179.304572, 494.408223)"><g><path d="M 2.46875 -28.34375 L 9.859375 -28.34375 L 17.65625 -9.296875 L 17.984375 -9.296875 L 25.796875 -28.34375 L 33.1875 -28.34375 L 33.1875 0 L 27.375 0 L 27.375 -18.453125 L 27.140625 -18.453125 L 19.796875 -0.140625 L 15.84375 -0.140625 L 8.515625 -18.515625 L 8.28125 -18.515625 L 8.28125 0 L 2.46875 0 Z M 2.46875 -28.34375 "/></g></g></g><g fill="#000000" fill-opacity="1"><g transform="translate(226.109784, 494.408223)"><g><path d="M 28.5 -14.171875 C 28.5 -11.078125 27.914062 -8.445312 26.75 -6.28125 C 25.582031 -4.113281 24 -2.457031 22 -1.3125 C 20 -0.175781 17.742188 0.390625 15.234375 0.390625 C 12.710938 0.390625 10.453125 -0.179688 8.453125 -1.328125 C 6.453125 -2.472656 4.867188 -4.128906 3.703125 -6.296875 C 2.546875 -8.472656 1.96875 -11.097656 1.96875 -14.171875 C 1.96875 -17.265625 2.546875 -19.894531 3.703125 -22.0625 C 4.867188 -24.226562 6.453125 -25.878906 8.453125 -27.015625 C 10.453125 -28.160156 12.710938 -28.734375 15.234375 -28.734375 C 17.742188 -28.734375 20 -28.160156 22 -27.015625 C 24 -25.878906 25.582031 -24.226562 26.75 -22.0625 C 27.914062 -19.894531 28.5 -17.265625 28.5 -14.171875 Z M 22.4375 -14.171875 C 22.4375 -17.179688 21.78125 -19.472656 20.46875 -21.046875 C 19.15625 -22.628906 17.410156 -23.421875 15.234375 -23.421875 C 13.054688 -23.421875 11.3125 -22.628906 10 -21.046875 C 8.695312 -19.472656 8.046875 -17.179688 8.046875 -14.171875 C 8.046875 -11.171875 8.695312 -8.875 10 -7.28125 C 11.3125 -5.695312 13.054688 -4.90625 15.234375 -4.90625 C 17.410156 -4.90625 19.15625 -5.695312 20.46875 -7.28125 C 21.78125 -8.875 22.4375 -11.171875 22.4375 -14.171875 Z M 22.4375 -14.171875 "/></g></g></g><g fill="#000000" fill-opacity="1"><g transform="translate(267.379615, 494.408223)"><g><path d="M 2.46875 0 L 2.46875 -28.34375 L 13.640625 -28.34375 C 16.859375 -28.34375 19.351562 -27.5 21.125 -25.8125 C 22.90625 -24.132812 23.796875 -21.890625 23.796875 -19.078125 C 23.796875 -17.140625 23.363281 -15.484375 22.5 -14.109375 C 21.644531 -12.734375 20.410156 -11.703125 18.796875 -11.015625 L 24.8125 0 L 18.203125 0 L 12.828125 -10.046875 L 8.453125 -10.046875 L 8.453125 0 Z M 8.453125 -14.859375 L 12.53125 -14.859375 C 15.925781 -14.859375 17.625 -16.265625 17.625 -19.078125 C 17.625 -21.984375 15.914062 -23.4375 12.5 -23.4375 L 8.453125 -23.4375 Z M 8.453125 -14.859375 "/></g></g></g><g fill="#000000" fill-opacity="1"><g transform="translate(303.750641, 494.408223)"><g><path d="M 2.46875 0 L 2.46875 -28.34375 L 21.5625 -28.34375 L 21.5625 -23.40625 L 8.453125 -23.40625 L 8.453125 -16.640625 L 20.578125 -16.640625 L 20.578125 -11.703125 L 8.453125 -11.703125 L 8.453125 -4.9375 L 21.609375 -4.9375 L 21.609375 0 Z M 2.46875 0 "/></g></g></g><g fill="#000000" fill-opacity="1"><g transform="translate(338.419527, 494.408223)"><g/></g></g><g fill="#000000" fill-opacity="1"><g transform="translate(358.253626, 494.408223)"><g><path d="M 2.46875 0 L 2.46875 -28.34375 L 13.8125 -28.34375 C 16.9375 -28.34375 19.285156 -27.660156 20.859375 -26.296875 C 22.429688 -24.941406 23.21875 -23.203125 23.21875 -21.078125 C 23.21875 -19.410156 22.734375 -18.0625 21.765625 -17.03125 C 20.796875 -16 19.570312 -15.316406 18.09375 -14.984375 L 18.09375 -14.703125 C 19.175781 -14.660156 20.191406 -14.359375 21.140625 -13.796875 C 22.085938 -13.234375 22.851562 -12.445312 23.4375 -11.4375 C 24.03125 -10.4375 24.328125 -9.234375 24.328125 -7.828125 C 24.328125 -6.328125 23.953125 -4.984375 23.203125 -3.796875 C 22.460938 -2.617188 21.367188 -1.691406 19.921875 -1.015625 C 18.472656 -0.335938 16.691406 0 14.578125 0 Z M 8.453125 -4.90625 L 13.34375 -4.90625 C 15.019531 -4.90625 16.238281 -5.226562 17 -5.875 C 17.757812 -6.519531 18.140625 -7.367188 18.140625 -8.421875 C 18.140625 -9.597656 17.722656 -10.554688 16.890625 -11.296875 C 16.054688 -12.046875 14.921875 -12.421875 13.484375 -12.421875 L 8.453125 -12.421875 Z M 8.453125 -16.484375 L 12.890625 -16.484375 C 14.117188 -16.484375 15.140625 -16.800781 15.953125 -17.4375 C 16.765625 -18.082031 17.171875 -18.960938 17.171875 -20.078125 C 17.171875 -21.097656 16.804688 -21.921875 16.078125 -22.546875 C 15.359375 -23.179688 14.335938 -23.5 13.015625 -23.5 L 8.453125 -23.5 Z M 8.453125 -16.484375 "/></g></g></g><g fill="#000000" fill-opacity="1"><g transform="translate(394.804535, 494.408223)"><g><path d="M 20.015625 -28.34375 L 25.953125 -28.34375 L 25.953125 -9.609375 C 25.953125 -7.460938 25.445312 -5.644531 24.4375 -4.15625 C 23.4375 -2.664062 22.050781 -1.53125 20.28125 -0.75 C 18.519531 0.0195312 16.5 0.40625 14.21875 0.40625 C 11.925781 0.40625 9.894531 0.0195312 8.125 -0.75 C 6.351562 -1.53125 4.96875 -2.664062 3.96875 -4.15625 C 2.96875 -5.644531 2.46875 -7.460938 2.46875 -9.609375 L 2.46875 -28.34375 L 8.453125 -28.34375 L 8.453125 -9.8125 C 8.453125 -8.300781 9 -7.109375 10.09375 -6.234375 C 11.1875 -5.367188 12.5625 -4.9375 14.21875 -4.9375 C 15.894531 -4.9375 17.28125 -5.367188 18.375 -6.234375 C 19.46875 -7.109375 20.015625 -8.300781 20.015625 -9.8125 Z M 20.015625 -28.34375 "/></g></g></g><g fill="#000000" fill-opacity="1"><g transform="translate(434.02629, 494.408223)"><g><path d="M 2.46875 0 L 2.46875 -28.34375 L 8.453125 -28.34375 L 8.453125 -4.9375 L 20.609375 -4.9375 L 20.609375 0 Z M 2.46875 0 "/></g></g></g><g fill="#000000" fill-opacity="1"><g transform="translate(466.93767, 494.408223)"><g><path d="M 2.46875 0 L 2.46875 -28.34375 L 8.453125 -28.34375 L 8.453125 -4.9375 L 20.609375 -4.9375 L 20.609375 0 Z M 2.46875 0 "/></g></g></g><g fill="#000000" fill-opacity="1"><g transform="translate(499.849097, 494.408223)"><g><path d="M 17.84375 -20.1875 C 17.726562 -21.300781 17.25 -22.164062 16.40625 -22.78125 C 15.5625 -23.40625 14.425781 -23.71875 13 -23.71875 C 11.53125 -23.71875 10.398438 -23.414062 9.609375 -22.8125 C 8.828125 -22.21875 8.4375 -21.460938 8.4375 -20.546875 C 8.414062 -19.535156 8.847656 -18.769531 9.734375 -18.25 C 10.628906 -17.726562 11.691406 -17.320312 12.921875 -17.03125 L 15.46875 -16.421875 C 17.113281 -16.054688 18.570312 -15.519531 19.84375 -14.8125 C 21.125 -14.113281 22.128906 -13.210938 22.859375 -12.109375 C 23.597656 -11.015625 23.96875 -9.675781 23.96875 -8.09375 C 23.957031 -5.5 22.984375 -3.429688 21.046875 -1.890625 C 19.117188 -0.359375 16.425781 0.40625 12.96875 0.40625 C 9.53125 0.40625 6.785156 -0.375 4.734375 -1.9375 C 2.679688 -3.507812 1.617188 -5.828125 1.546875 -8.890625 L 7.34375 -8.890625 C 7.445312 -7.472656 8.007812 -6.40625 9.03125 -5.6875 C 10.050781 -4.976562 11.335938 -4.625 12.890625 -4.625 C 14.421875 -4.625 15.640625 -4.945312 16.546875 -5.59375 C 17.453125 -6.238281 17.910156 -7.078125 17.921875 -8.109375 C 17.910156 -9.066406 17.488281 -9.800781 16.65625 -10.3125 C 15.832031 -10.832031 14.648438 -11.28125 13.109375 -11.65625 L 10.015625 -12.421875 C 7.628906 -12.992188 5.742188 -13.898438 4.359375 -15.140625 C 2.972656 -16.390625 2.285156 -18.0625 2.296875 -20.15625 C 2.285156 -21.863281 2.742188 -23.359375 3.671875 -24.640625 C 4.597656 -25.929688 5.875 -26.9375 7.5 -27.65625 C 9.125 -28.375 10.96875 -28.734375 13.03125 -28.734375 C 15.132812 -28.734375 16.972656 -28.367188 18.546875 -27.640625 C 20.117188 -26.921875 21.34375 -25.921875 22.21875 -24.640625 C 23.09375 -23.359375 23.546875 -21.875 23.578125 -20.1875 Z M 17.84375 -20.1875 "/></g></g></g><g fill="#000000" fill-opacity="1"><g transform="translate(536.164761, 494.408223)"><g><path d="M 2.46875 0 L 2.46875 -28.34375 L 8.453125 -28.34375 L 8.453125 -16.640625 L 20.625 -16.640625 L 20.625 -28.34375 L 26.59375 -28.34375 L 26.59375 0 L 20.625 0 L 20.625 -11.703125 L 8.453125 -11.703125 L 8.453125 0 Z M 2.46875 0 "/></g></g></g><g fill="#000000" fill-opacity="1"><g transform="translate(576.036886, 494.408223)"><g><path d="M 8.453125 -28.34375 L 8.453125 0 L 2.46875 0 L 2.46875 -28.34375 Z M 8.453125 -28.34375 "/></g></g></g><g fill="#000000" fill-opacity="1"><g transform="translate(597.766851, 494.408223)"><g><path d="M 1.390625 -23.40625 L 1.390625 -28.34375 L 24.65625 -28.34375 L 24.65625 -23.40625 L 15.984375 -23.40625 L 15.984375 0 L 10.0625 0 L 10.0625 -23.40625 Z M 1.390625 -23.40625 "/></g></g></g><g fill="#000000" fill-opacity="1"><g transform="translate(634.608366, 494.408223)"><g/></g></g><g fill="#000000" fill-opacity="1"><g transform="translate(654.442466, 494.408223)"><g><path d="M 8.453125 -28.34375 L 8.453125 0 L 2.46875 0 L 2.46875 -28.34375 Z M 8.453125 -28.34375 "/></g></g></g><g fill="#000000" fill-opacity="1"><g transform="translate(676.172384, 494.408223)"><g><path d="M 26.171875 -28.34375 L 26.171875 0 L 21 0 L 8.65625 -17.84375 L 8.453125 -17.84375 L 8.453125 0 L 2.46875 0 L 2.46875 -28.34375 L 7.71875 -28.34375 L 19.953125 -10.515625 L 20.203125 -10.515625 L 20.203125 -28.34375 Z M 26.171875 -28.34375 "/></g></g></g><g fill="#000000" fill-opacity="1"><g transform="translate(715.61552, 494.408223)"><g/></g></g><g fill="#000000" fill-opacity="1"><g transform="translate(735.449619, 494.408223)"><g><path d="M 2.46875 0 L 2.46875 -28.34375 L 8.453125 -28.34375 L 8.453125 -16.640625 L 20.625 -16.640625 L 20.625 -28.34375 L 26.59375 -28.34375 L 26.59375 0 L 20.625 0 L 20.625 -11.703125 L 8.453125 -11.703125 L 8.453125 0 Z M 2.46875 0 "/></g></g></g><g fill="#000000" fill-opacity="1"><g transform="translate(775.321791, 494.408223)"><g><path d="M 2.46875 0 L 2.46875 -28.34375 L 21.5625 -28.34375 L 21.5625 -23.40625 L 8.453125 -23.40625 L 8.453125 -16.640625 L 20.578125 -16.640625 L 20.578125 -11.703125 L 8.453125 -11.703125 L 8.453125 -4.9375 L 21.609375 -4.9375 L 21.609375 0 Z M 2.46875 0 "/></g></g></g><g fill="#000000" fill-opacity="1"><g transform="translate(809.990676, 494.408223)"><g><path d="M 7.34375 0 L 0.921875 0 L 10.703125 -28.34375 L 18.4375 -28.34375 L 28.203125 0 L 21.78125 0 L 19.671875 -6.46875 L 9.453125 -6.46875 Z M 10.96875 -11.140625 L 18.171875 -11.140625 L 14.6875 -21.859375 L 14.46875 -21.859375 Z M 10.96875 -11.140625 "/></g></g></g><g fill="#000000" fill-opacity="1"><g transform="translate(849.931981, 494.408223)"><g><path d="M 2.46875 0 L 2.46875 -28.34375 L 8.453125 -28.34375 L 8.453125 -4.9375 L 20.609375 -4.9375 L 20.609375 0 Z M 2.46875 0 "/></g></g></g><g fill="#000000" fill-opacity="1"><g transform="translate(879.314216, 494.408223)"><g><path d="M 1.390625 -23.40625 L 1.390625 -28.34375 L 24.65625 -28.34375 L 24.65625 -23.40625 L 15.984375 -23.40625 L 15.984375 0 L 10.0625 0 L 10.0625 -23.40625 Z M 1.390625 -23.40625 "/></g></g></g><g fill="#000000" fill-opacity="1"><g transform="translate(916.155732, 494.408223)"><g><path d="M 2.46875 0 L 2.46875 -28.34375 L 8.453125 -28.34375 L 8.453125 -16.640625 L 20.625 -16.640625 L 20.625 -28.34375 L 26.59375 -28.34375 L 26.59375 0 L 20.625 0 L 20.625 -11.703125 L 8.453125 -11.703125 L 8.453125 0 Z M 2.46875 0 "/></g></g></g><path fill="#ff5757" d="M 67.835938 387.554688 L 952.789062 387.554688 L 952.789062 418.289062 L 67.835938 418.289062 Z M 67.835938 387.554688 " fill-opacity="1" fill-rule="nonzero"/><g fill="#ff5757" fill-opacity="1"><g transform="translate(67.83615, 371.813005)"><g><path d="M 210.734375 -228.234375 L 210.734375 0 L 169.046875 0 L 69.765625 -143.640625 L 68.09375 -143.640625 L 68.09375 0 L 19.84375 0 L 19.84375 -228.234375 L 62.1875 -228.234375 L 160.6875 -84.6875 L 162.703125 -84.6875 L 162.703125 -228.234375 Z M 210.734375 -228.234375 "/></g></g></g><g fill="#ff5757" fill-opacity="1"><g transform="translate(283.137574, 371.813005)"><g><path d="M 229.5625 -114.109375 C 229.5625 -89.222656 224.863281 -68.050781 215.46875 -50.59375 C 206.070312 -33.132812 193.3125 -19.816406 177.1875 -10.640625 C 161.0625 -1.460938 142.894531 3.125 122.6875 3.125 C 102.40625 3.125 84.203125 -1.476562 68.078125 -10.6875 C 51.960938 -19.90625 39.222656 -33.257812 29.859375 -50.75 C 20.503906 -68.25 15.828125 -89.367188 15.828125 -114.109375 C 15.828125 -139.003906 20.503906 -160.179688 29.859375 -177.640625 C 39.222656 -195.097656 51.960938 -208.410156 68.078125 -217.578125 C 84.203125 -226.753906 102.40625 -231.34375 122.6875 -231.34375 C 142.894531 -231.34375 161.0625 -226.753906 177.1875 -217.578125 C 193.3125 -208.410156 206.070312 -195.097656 215.46875 -177.640625 C 224.863281 -160.179688 229.5625 -139.003906 229.5625 -114.109375 Z M 180.640625 -114.109375 C 180.640625 -138.328125 175.363281 -156.804688 164.8125 -169.546875 C 154.269531 -182.296875 140.226562 -188.671875 122.6875 -188.671875 C 105.15625 -188.671875 91.113281 -182.296875 80.5625 -169.546875 C 70.019531 -156.804688 64.75 -138.328125 64.75 -114.109375 C 64.75 -89.960938 70.019531 -71.5 80.5625 -58.71875 C 91.113281 -45.945312 105.15625 -39.5625 122.6875 -39.5625 C 140.226562 -39.5625 154.269531 -45.945312 164.8125 -58.71875 C 175.363281 -71.5 180.640625 -89.960938 180.640625 -114.109375 Z M 180.640625 -114.109375 "/></g></g></g><g fill="#ff5757" fill-opacity="1"><g transform="translate(513.148964, 371.813005)"><g><path d="M 68.09375 -228.234375 L 68.09375 0 L 19.84375 0 L 19.84375 -228.234375 Z M 68.09375 -228.234375 "/></g></g></g><g fill="#ff5757" fill-opacity="1"><g transform="translate(585.808797, 371.813005)"><g><path d="M 143.640625 -162.59375 C 142.753906 -171.582031 138.910156 -178.5625 132.109375 -183.53125 C 125.316406 -188.507812 116.160156 -191 104.640625 -191 C 92.828125 -191 83.765625 -188.582031 77.453125 -183.75 C 71.140625 -178.925781 67.984375 -172.835938 67.984375 -165.484375 C 67.828125 -157.316406 71.332031 -151.132812 78.5 -146.9375 C 85.675781 -142.738281 94.203125 -139.488281 104.078125 -137.1875 L 124.59375 -132.28125 C 137.8125 -129.3125 149.566406 -125 159.859375 -119.34375 C 170.148438 -113.695312 178.25 -106.4375 184.15625 -97.5625 C 190.0625 -88.6875 193.015625 -77.894531 193.015625 -65.1875 C 192.941406 -44.3125 185.117188 -27.6875 169.546875 -15.3125 C 153.984375 -2.945312 132.273438 3.234375 104.421875 3.234375 C 76.710938 3.234375 54.609375 -3.078125 38.109375 -15.703125 C 21.617188 -28.335938 13.078125 -46.988281 12.484375 -71.65625 L 59.171875 -71.65625 C 59.992188 -60.21875 64.507812 -51.617188 72.71875 -45.859375 C 80.925781 -40.097656 91.304688 -37.21875 103.859375 -37.21875 C 116.117188 -37.21875 125.90625 -39.816406 133.21875 -45.015625 C 140.539062 -50.222656 144.238281 -56.984375 144.3125 -65.296875 C 144.238281 -73.023438 140.859375 -78.96875 134.171875 -83.125 C 127.484375 -87.289062 117.9375 -90.859375 105.53125 -93.828125 L 80.6875 -100.078125 C 61.4375 -104.679688 46.238281 -111.992188 35.09375 -122.015625 C 23.957031 -132.046875 18.425781 -145.457031 18.5 -162.25 C 18.425781 -176.070312 22.117188 -188.164062 29.578125 -198.53125 C 37.046875 -208.894531 47.316406 -216.953125 60.390625 -222.703125 C 73.472656 -228.460938 88.332031 -231.34375 104.96875 -231.34375 C 121.914062 -231.34375 136.722656 -228.445312 149.390625 -222.65625 C 162.054688 -216.863281 171.914062 -208.800781 178.96875 -198.46875 C 186.03125 -188.144531 189.671875 -176.1875 189.890625 -162.59375 Z M 143.640625 -162.59375 "/></g></g></g><g fill="#ff5757" fill-opacity="1"><g transform="translate(775.92514, 371.813005)"><g><path d="M 19.84375 0 L 19.84375 -228.234375 L 173.625 -228.234375 L 173.625 -188.4375 L 68.09375 -188.4375 L 68.09375 -134.0625 L 165.703125 -134.0625 L 165.703125 -94.28125 L 68.09375 -94.28125 L 68.09375 -39.78125 L 174.0625 -39.78125 L 174.0625 0 Z M 19.84375 0 "/></g></g></g><g clip-path="url(#5e846ab034)"><g mask="url(#a987526ee1)"><g transform="matrix(1, 0, 0, 1, 67, -0.000000000000058398)"><g clip-path="url(#14dd0237d5)"><g fill="#ff5757" fill-opacity="1"><g transform="translate(0.639222, 301.389974)"><g><path d="M 210.734375 -228.234375 L 210.734375 0 L 169.046875 0 L 69.765625 -143.640625 L 68.09375 -143.640625 L 68.09375 0 L 19.84375 0 L 19.84375 -228.234375 L 62.1875 -228.234375 L 160.6875 -84.6875 L 162.703125 -84.6875 L 162.703125 -228.234375 Z M 210.734375 -228.234375 "/></g></g></g></g></g></g></g><g mask="url(#3579e7668e)"><g transform="matrix(1, 0, 0, 1, 67, 34)"><g clip-path="url(#de5a744002)"><g fill="#ff5757" fill-opacity="1"><g transform="translate(0.634219, 301.837894)"><g><path d="M 210.734375 -228.234375 L 210.734375 0 L 169.046875 0 L 69.765625 -143.640625 L 68.09375 -143.640625 L 68.09375 0 L 19.84375 0 L 19.84375 -228.234375 L 62.1875 -228.234375 L 160.6875 -84.6875 L 162.703125 -84.6875 L 162.703125 -228.234375 Z M 210.734375 -228.234375 "/></g></g></g></g></g></g></svg>